<svg width="33" height="33" viewBox="0 0 33 33" fill="none" xmlns="http://www.w3.org/2000/svg">
<g clip-path="url(#clip0_493_961)">
<path d="M16.3673 -6.53135e-05C7.36225 0.0650785 -0.130341 7.47286 -3.45593e-05 16.7605C0.130271 25.6992 7.49256 33.107 16.7164 32.9953C25.6656 32.8883 33.0046 25.5689 33 16.4999C33.0139 7.40306 25.5679 -0.0652091 16.3673 -6.53135e-05ZM16.3673 29.8637C9.07019 29.7939 3.06681 23.8147 3.13662 16.3696C3.20177 9.02701 9.22842 3.04773 16.6559 3.13149C23.9344 3.21059 29.868 9.14799 29.8726 16.5046C29.8633 23.9077 23.818 29.9335 16.3673 29.8637ZM19.7786 15.6856C19.7134 15.6298 19.7413 15.6112 19.7786 15.5693C20.1927 15.1086 20.5092 14.5922 20.6535 13.9919C20.8536 13.1636 20.8303 12.3307 20.6069 11.5164C20.3137 10.4695 19.6669 9.71567 18.6477 9.3062C17.9077 9.0084 17.1399 8.96652 16.3627 9.12007C15.0829 9.37134 14.2219 10.1205 13.7891 11.3536C13.5937 11.9073 13.5704 12.4843 13.5704 13.0613C13.5704 14.0245 13.9148 14.8574 14.543 15.5786C14.5942 15.6391 14.6035 15.6624 14.5384 15.7182C14.1056 16.0765 13.7984 16.5279 13.5937 17.049C13.3796 17.5888 13.3191 18.1518 13.347 18.7009C13.3284 19.2592 13.361 19.785 13.5053 20.3015C13.8217 21.4555 14.5105 22.2838 15.6413 22.7026C16.4418 23.0004 17.2655 23.0422 18.0939 22.8701C19.4574 22.5909 20.3696 21.7952 20.7884 20.4597C21.0677 19.5663 21.063 18.645 20.9373 17.733C20.8257 16.9094 20.4301 16.2161 19.7739 15.6856H19.7786ZM16.2044 12.2749C16.3115 11.8189 16.6279 11.5769 17.0933 11.5723C17.1957 11.5723 17.2981 11.5676 17.4005 11.5816C17.8612 11.6607 18.1218 11.9585 18.1823 12.4471C18.2056 12.6425 18.2056 12.8379 18.2056 13.0985C18.2102 13.3125 18.2056 13.5871 18.1311 13.857C18.0334 14.1966 17.8379 14.4619 17.4749 14.5363C17.0933 14.6154 16.7257 14.5922 16.4371 14.2804C16.2789 14.1082 16.2044 13.8942 16.1765 13.6662C16.116 13.2009 16.0974 12.7309 16.2044 12.2702V12.2749ZM18.3498 19.4965C18.2475 20.0503 17.9496 20.3155 17.3865 20.3899C17.1724 20.4179 16.9537 20.4086 16.7443 20.3527C16.3161 20.2411 16.0416 19.906 15.9718 19.4174C15.9392 19.1755 15.9485 18.9335 15.9438 18.6916C15.9438 18.3891 15.9299 18.0867 16.0136 17.7889C16.1393 17.3328 16.4744 17.0537 16.9444 17.0118C17.1631 16.9932 17.3819 16.9978 17.5959 17.0537C18.038 17.17 18.2754 17.4817 18.3452 17.9098C18.4336 18.4356 18.4383 18.9661 18.3452 19.4919L18.3498 19.4965ZM11.4855 9.3853C11.4855 9.29689 11.4622 9.27362 11.3738 9.27362C10.8945 9.27828 10.4151 9.27362 9.93114 9.27362C9.87065 9.27362 9.8148 9.28758 9.76361 9.32016C8.88404 9.86457 8.00448 10.4043 7.12026 10.9441C7.05511 10.986 7.03184 11.0279 7.03184 11.1023C7.03184 11.9724 7.03184 12.8426 7.03184 13.7127C7.03184 13.7406 7.02253 13.7732 7.05045 13.8058C7.35295 13.6336 7.65544 13.4614 7.95329 13.2893C8.25578 13.1171 8.55828 12.9403 8.87473 12.7588C8.87473 12.8053 8.87473 12.8286 8.87473 12.8565C8.87473 14.5642 8.87473 16.2766 8.87473 17.9843C8.87473 19.5245 8.87473 21.0647 8.87473 22.6048C8.87473 22.7119 8.90731 22.7351 9.00504 22.7351C9.79153 22.7351 10.578 22.7351 11.3645 22.7351C11.4483 22.7351 11.4809 22.7212 11.4809 22.6281C11.4809 18.2123 11.4809 13.7965 11.4809 9.3853H11.4855ZM27.7086 14.7783C27.7086 14.6806 27.676 14.6619 27.5876 14.6619C27.071 14.6619 26.5498 14.6619 26.0332 14.6666C25.9355 14.6666 25.9216 14.634 25.9262 14.5503C25.9262 14.2804 25.9262 14.0152 25.9262 13.7453C25.9262 13.4707 25.9262 13.1916 25.9262 12.917C25.9262 12.8379 25.9029 12.8193 25.8285 12.8193C25.3491 12.8193 24.8698 12.8193 24.3858 12.8193C24.2974 12.8193 24.2834 12.8426 24.2834 12.9263C24.2834 13.4707 24.2834 14.0152 24.2834 14.5596C24.2834 14.6433 24.2648 14.6666 24.181 14.6666C23.6598 14.6666 23.1386 14.6666 22.6174 14.6666C22.5336 14.6666 22.5103 14.6852 22.5103 14.769C22.515 15.2436 22.5103 15.7229 22.5103 16.1975C22.5103 16.2766 22.5289 16.2998 22.6081 16.2998C23.1246 16.2998 23.6459 16.2998 24.1624 16.2998C24.2555 16.2998 24.2927 16.3138 24.2881 16.4208C24.2834 16.9606 24.2881 17.5004 24.2834 18.0448C24.2834 18.1239 24.2974 18.1471 24.3812 18.1471C24.8605 18.1471 25.3398 18.1471 25.8238 18.1471C25.9076 18.1471 25.9309 18.1285 25.9309 18.0401C25.9309 17.4957 25.9309 16.9513 25.9309 16.4069C25.9309 16.3185 25.9541 16.2998 26.0379 16.2998C26.5591 16.2998 27.0803 16.2998 27.6016 16.2998C27.69 16.2998 27.7133 16.2766 27.7133 16.1882C27.7133 15.7182 27.7086 15.2482 27.7133 14.7829L27.7086 14.7783Z" fill="#FFFF00"/>
</g>
<defs>
<clipPath id="clip0_493_961">
<rect width="33" height="33" fill="white"/>
</clipPath>
</defs>
</svg>
