<svg width="28" height="27" viewBox="0 0 28 27" fill="none" xmlns="http://www.w3.org/2000/svg">
<path d="M18.375 13.0624C18.375 14.145 17.9141 15.1833 17.0936 15.9489C16.2731 16.7144 15.1603 17.1444 14 17.1444C12.8397 17.1444 11.7269 16.7144 10.9064 15.9489C10.0859 15.1833 9.625 14.145 9.625 13.0624C9.625 12.8298 9.65125 12.6025 9.69646 12.3821H8.16667V17.8207C8.16667 18.199 8.49479 18.5051 8.90021 18.5051H19.1012C19.2955 18.5048 19.4817 18.4325 19.619 18.3042C19.7562 18.1759 19.8333 18.002 19.8333 17.8207V12.3821H18.3035C18.3487 12.6025 18.375 12.8298 18.375 13.0624V13.0624ZM14 15.7838C14.3831 15.7837 14.7625 15.7132 15.1164 15.5763C15.4703 15.4394 15.7919 15.2389 16.0627 14.986C16.3335 14.7332 16.5483 14.4331 16.6949 14.1028C16.8414 13.7725 16.9168 13.4185 16.9167 13.0611C16.9166 12.7036 16.841 12.3497 16.6943 12.0195C16.5476 11.6892 16.3326 11.3892 16.0617 11.1365C15.7907 10.8838 15.469 10.6834 15.115 10.5467C14.761 10.41 14.3817 10.3396 13.9985 10.3397C13.2248 10.3399 12.4828 10.6269 11.9358 11.1375C11.3889 11.6481 11.0817 12.3405 11.0819 13.0624C11.0821 13.7844 11.3896 14.4766 11.9369 14.987C12.4841 15.4973 13.2263 15.784 14 15.7838V15.7838ZM17.5 10.205H19.2485C19.3647 10.205 19.4761 10.1621 19.5584 10.0855C19.6407 10.009 19.6871 9.90521 19.6875 9.79682V8.16538C19.6875 8.05676 19.6413 7.95258 19.5589 7.87578C19.4766 7.79897 19.365 7.75582 19.2485 7.75582H17.5C17.3836 7.75582 17.2719 7.79897 17.1896 7.87578C17.1073 7.95258 17.061 8.05676 17.061 8.16538V9.79682C17.0625 10.0213 17.2594 10.205 17.5 10.205V10.205ZM14 0C10.287 0 6.72601 1.37622 4.1005 3.8259C1.475 6.27558 0 9.59806 0 13.0624C0 16.5268 1.475 19.8493 4.1005 22.299C6.72601 24.7486 10.287 26.1249 14 26.1249C15.8385 26.1249 17.659 25.787 19.3576 25.1305C21.0561 24.4741 22.5995 23.5119 23.8995 22.299C25.1995 21.086 26.2307 19.646 26.9343 18.0612C27.6379 16.4764 28 14.7778 28 13.0624C28 11.3471 27.6379 9.64846 26.9343 8.06366C26.2307 6.47885 25.1995 5.03886 23.8995 3.8259C22.5995 2.61294 21.0561 1.65077 19.3576 0.994319C17.659 0.33787 15.8385 0 14 0V0ZM21.2917 18.3541C21.2917 19.1854 20.5625 19.8658 19.6715 19.8658H8.32854C7.4375 19.8658 6.70833 19.1854 6.70833 18.3541V7.77079C6.70833 6.93942 7.4375 6.25908 8.32854 6.25908H19.6715C20.5625 6.25908 21.2917 6.93942 21.2917 7.77079V18.3541V18.3541Z" fill="#FFFF00"/>
</svg>
