<svg width="28" height="27" viewBox="0 0 28 27" fill="none" xmlns="http://www.w3.org/2000/svg">
<path d="M14 0C6.26792 0 0 5.84816 0 13.0624C0 20.2767 6.26792 26.1249 14 26.1249C21.7321 26.1249 28 20.2767 28 13.0624C28 5.84816 21.7321 0 14 0ZM19.6948 10.7003C19.7006 10.8119 19.7021 10.9235 19.7021 11.0323C19.7021 14.434 16.9298 18.3541 11.8577 18.3541C10.359 18.3564 8.89141 17.9548 7.63146 17.1975C7.84583 17.222 8.06604 17.2315 8.28917 17.2315C9.58125 17.2315 10.7698 16.822 11.7133 16.1307C11.1383 16.1202 10.5812 15.9426 10.1195 15.6226C9.65789 15.3026 9.31474 14.8561 9.13792 14.3455C9.55085 14.4188 9.97624 14.4035 10.3819 14.3006C9.75778 14.1829 9.19654 13.8674 8.79332 13.4076C8.39011 12.9478 8.16974 12.372 8.16958 11.778V11.7467C8.54146 11.9385 8.96729 12.0555 9.41937 12.0691C8.83429 11.7057 8.4201 11.1475 8.26152 10.5086C8.10294 9.86975 8.21195 9.19847 8.56625 8.63209C9.25889 9.42672 10.1227 10.0768 11.1017 10.5402C12.0807 11.0036 13.153 11.27 14.2494 11.3221C14.11 10.7701 14.17 10.1906 14.42 9.67369C14.67 9.15677 15.0961 8.73141 15.632 8.46373C16.1678 8.19605 16.7835 8.10105 17.3832 8.19351C17.9829 8.28596 18.533 8.56069 18.9481 8.97498C19.5652 8.86106 20.157 8.64985 20.6981 8.35043C20.4924 8.94659 20.0618 9.45281 19.4862 9.77505C20.0329 9.71362 20.5667 9.5765 21.07 9.36821C20.7003 9.88512 20.2346 10.3362 19.6948 10.7003V10.7003Z" fill="#FFFF00"/>
</svg>
